<svg xmlns="http://www.w3.org/2000/svg" width="36" height="36" fill="none">
  <g clip-path="url(#a)">
    <path fill="#fff" d="M27 0H9a9 9 0 0 0-9 9v18a9 9 0 0 0 9 9h18a9 9 0 0 0 9-9V9a9 9 0 0 0-9-9Z"/>
    <path fill="#E0E0E0" d="M27 1.25c4.27 0 7.75 3.48 7.75 7.75v18c0 4.27-3.48 7.75-7.75 7.75H9c-4.27 0-7.75-3.48-7.75-7.75V9c0-4.27 3.48-7.75 7.75-7.75h18ZM27 0H9a9 9 0 0 0-9 9v18a9 9 0 0 0 9 9h18a9 9 0 0 0 9-9V9a9 9 0 0 0-9-9Z"/>
    <path fill="#E00" d="M19 14.62c-.34 0-.62-.28-.62-.62V7c0-.34.28-.62.62-.62.34 0 .62.28.62.62v7c0 .34-.28.62-.62.62ZM15 18.62H8c-.34 0-.62-.28-.62-.62 0-.34.28-.62.62-.62h7c.34 0 .62.28.62.62 0 .34-.28.62-.62.62ZM19 29.62c-.34 0-.62-.28-.62-.62v-7c0-.34.28-.62.62-.62.34 0 .62.28.62.62v7c0 .34-.28.62-.62.62Z"/>
    <path fill="#000" d="M29.58 18.24c.03-.07.04-.14.04-.21v-.06a.522.522 0 0 0-.12-.34c-.02-.02-.03-.05-.05-.08l-2-2a.628.628 0 0 0-.88 0c-.24.24-.24.64 0 .88l.93.93h-9.49c-.34 0-.62.28-.62.62 0 .34.28.62.62.62h9.49l-.93.93c-.24.24-.24.64 0 .88.12.12.28.18.44.18.16 0 .32-.06.44-.18l2-2s.03-.05.05-.08c.03-.04.06-.08.08-.13v.04ZM16 15.62a.62.62 0 0 1-.44-.18l-4-4a.628.628 0 0 1 0-.88c.24-.24.64-.24.88 0l4 4c.24.24.24.64 0 .88a.62.62 0 0 1-.44.18ZM12 25.62a.62.62 0 0 1-.44-.18.628.628 0 0 1 0-.88l4-4c.24-.24.64-.24.88 0s.24.64 0 .88l-4 4a.62.62 0 0 1-.44.18Z"/>
    <path fill="#E00" d="M16.42 12.62a.62.62 0 0 1-.61-.5l-.42-2a.62.62 0 0 1 .48-.74c.34-.08.67.14.74.48l.42 2a.62.62 0 0 1-.48.74c-.04 0-.09.01-.13.01v.01ZM13 16.05s-.09 0-.13-.01l-2-.42a.62.62 0 0 1-.48-.74c.07-.34.4-.56.74-.48l2 .42c.34.07.55.4.48.74a.63.63 0 0 1-.61.5v-.01ZM16 26.62s-.09 0-.13-.01a.62.62 0 0 1-.48-.74l.42-2c.07-.34.4-.56.74-.48.34.07.55.4.48.74l-.42 2a.63.63 0 0 1-.61.5v-.01ZM11 21.62a.62.62 0 0 1-.61-.5.62.62 0 0 1 .48-.74l2-.42c.34-.08.67.14.74.48a.62.62 0 0 1-.48.74l-2 .42s-.09.01-.13.01v.01Z"/>
    <path fill="#000" d="M8 14.63c-.16 0-.32-.07-.44-.19a.718.718 0 0 1-.14-.2.687.687 0 0 1-.05-.24c0-.16.07-.32.19-.44.23-.23.65-.24.88 0 .12.12.19.28.19.44 0 .08-.02.16-.05.24-.03.08-.08.14-.14.2-.12.12-.28.19-.44.19ZM8 22.63c-.16 0-.32-.07-.44-.19a.613.613 0 0 1-.19-.44c0-.16.07-.32.19-.44.23-.23.64-.24.88 0 .12.12.19.28.19.44 0 .16-.07.33-.19.44-.12.12-.28.19-.44.19Z"/>
  </g>
  <defs>
    <clipPath id="a">
      <path fill="#fff" d="M0 0h36v36H0z"/>
    </clipPath>
  </defs>
</svg>
